<svg width="30" height="30" viewBox="0 0 30 30" fill="none" xmlns="http://www.w3.org/2000/svg">
<path d="M29 19V20H30V19H29ZM1 5V4H0V5H1ZM1 25H0V26H1V25ZM16 19C16 22.866 19.134 26 23 26V24C20.2386 24 18 21.7614 18 19H16ZM23 12C19.134 12 16 15.134 16 19H18C18 16.2386 20.2386 14 23 14V12ZM30 19C30 15.134 26.866 12 23 12V14C25.7614 14 28 16.2386 28 19H30ZM27.0535 21.928C26.1434 23.1853 24.6669 24 23 24V26C25.3354 26 27.4036 24.8553 28.6736 23.1007L27.0535 21.928ZM1 6H6V4H1V6ZM6 14H1V16H6V14ZM2 15V5H0V15H2ZM10 10C10 12.2091 8.20914 14 6 14V16C9.31371 16 12 13.3137 12 10H10ZM6 6C8.20914 6 10 7.79086 10 10H12C12 6.68629 9.31371 4 6 4V6ZM1 16H8V14H1V16ZM8 24H1V26H8V24ZM2 25V15H0V25H2ZM12 20C12 22.2091 10.2091 24 8 24V26C11.3137 26 14 23.3137 14 20H12ZM8 16C10.2091 16 12 17.7909 12 20H14C14 16.6863 11.3137 14 8 14V16ZM17 20H29V18H17V20ZM18 8H28V6H18V8Z" fill="#FEFEFE"/>
</svg>
