<svg width="30" height="30" viewBox="0 0 30 30" fill="none" xmlns="http://www.w3.org/2000/svg">
<path d="M11.3004 24.9538C11.8272 24.7879 12.1197 24.2263 11.9538 23.6996C11.7879 23.1728 11.2263 22.8803 10.6996 23.0462L11.3004 24.9538ZM4.00394 19.0328L3.03672 18.7788L2.52884 20.7133L3.49606 20.9672L4.00394 19.0328ZM18 29V30H20V29H18ZM18.125 19.375L18.0181 18.3807C17.6347 18.4219 17.3091 18.68 17.1814 19.0439C17.0537 19.4078 17.1467 19.8127 17.4203 20.0845L18.125 19.375ZM25 11.825H26L26 11.8218L25 11.825ZM23.3337 7.8125L22.4016 7.45047C22.2583 7.81947 22.3461 8.23828 22.6256 8.51859L23.3337 7.8125ZM23.2337 3.77875L24.1468 3.37098C24.0263 3.10113 23.7926 2.89841 23.5085 2.81722L23.2337 3.77875ZM18.8888 5.3625L18.6365 6.33017C18.9076 6.40084 19.196 6.35452 19.4313 6.20251L18.8888 5.3625ZM11.1112 5.3625L10.5688 6.20261C10.8042 6.35455 11.0924 6.40082 11.3635 6.33017L11.1112 5.3625ZM6.76625 3.77875L6.49129 2.81729C6.20723 2.89853 5.97364 3.10121 5.85317 3.37098L6.76625 3.77875ZM6.66625 7.8125L7.37431 8.51865C7.65386 8.23835 7.74174 7.8195 7.59842 7.45047L6.66625 7.8125ZM5 11.8575H6L6 11.8549L5 11.8575ZM11.875 19.375L12.5809 20.0833C12.8523 19.8128 12.9453 19.411 12.8203 19.0488C12.6953 18.6866 12.3743 18.4276 11.9938 18.3821L11.875 19.375ZM11 22H12C12 21.9756 11.9991 21.9511 11.9973 21.9268L11 22ZM10 29V30H12V29H10ZM10.6996 23.0462C9.49356 23.4261 8.7286 23.3837 8.22168 23.2164C7.71771 23.0501 7.33134 22.7155 6.96281 22.2351C6.77616 21.9918 6.60419 21.7245 6.42362 21.4322C6.25193 21.1543 6.05758 20.8284 5.86094 20.5384C5.47932 19.9756 4.9163 19.2723 4.00394 19.0328L3.49606 20.9672C3.65495 21.0089 3.86412 21.1572 4.20562 21.6608C4.37055 21.9041 4.52549 22.165 4.72208 22.4833C4.90979 22.7872 5.12509 23.1254 5.37594 23.4524C5.88241 24.1126 6.57197 24.7781 7.59488 25.1156C8.61483 25.4522 9.82769 25.4177 11.3004 24.9538L10.6996 23.0462ZM20 21.875C20 21.2402 19.9722 20.6602 19.792 20.1192C19.6002 19.5432 19.2686 19.1014 18.8297 18.6655L17.4203 20.0845C17.7302 20.3923 17.836 20.5756 17.8945 20.7511C17.9646 20.9617 18 21.2598 18 21.875H20ZM18.2319 20.3693C20.0378 20.1752 22.0081 19.7197 23.5253 18.4064C25.0859 17.0555 26 14.9489 26 11.825H24C24 14.5436 23.221 16.0245 22.2163 16.8942C21.1682 17.8015 19.701 18.1998 18.0181 18.3807L18.2319 20.3693ZM26 11.8218C25.9943 10.0533 25.2906 8.35868 24.0419 7.10641L22.6256 8.51859C23.5021 9.39754 23.996 10.587 24 11.8282L26 11.8218ZM24.2659 8.17453C24.5645 7.40571 24.7077 6.58533 24.6873 5.76083L22.6879 5.8104C22.7018 6.37064 22.6045 6.92807 22.4016 7.45047L24.2659 8.17453ZM24.6873 5.76083C24.6668 4.93632 24.4831 4.12405 24.1468 3.37098L22.3207 4.18652C22.5492 4.69822 22.674 5.25015 22.6879 5.8104L24.6873 5.76083ZM23.2337 3.77875C23.5085 2.81722 23.5075 2.81696 23.5066 2.81669C23.5063 2.8166 23.5053 2.81633 23.5047 2.81615C23.5034 2.81578 23.5021 2.81542 23.5007 2.81505C23.4981 2.81431 23.4953 2.81356 23.4925 2.8128C23.4868 2.81127 23.4808 2.80971 23.4745 2.8081C23.4618 2.8049 23.4477 2.80157 23.4323 2.79819C23.4014 2.79142 23.3651 2.78449 23.3234 2.77807C23.2398 2.76522 23.1348 2.7545 23.008 2.75112C22.7538 2.74433 22.4158 2.76707 21.9895 2.85816C21.1383 3.04003 19.94 3.493 18.3462 4.52249L19.4313 6.20251C20.87 5.27325 21.8442 4.93434 22.4074 4.81402C22.6882 4.75402 22.8679 4.74809 22.9546 4.7504C22.9982 4.75157 23.0195 4.75484 23.0195 4.75485C23.0195 4.75486 23.0144 4.75407 23.0043 4.75185C22.9992 4.75073 22.9929 4.74926 22.9853 4.74736C22.9815 4.74641 22.9775 4.74535 22.9731 4.74417C22.9709 4.74358 22.9686 4.74296 22.9663 4.74231C22.9651 4.74199 22.9639 4.74166 22.9627 4.74132C22.9621 4.74115 22.9612 4.74089 22.9609 4.7408C22.96 4.74054 22.959 4.74027 23.2337 3.77875ZM19.141 4.39483C16.4257 3.68707 13.5743 3.68707 10.859 4.39483L11.3635 6.33017C13.748 5.70863 16.252 5.70863 18.6365 6.33017L19.141 4.39483ZM11.6537 4.52239C10.0593 3.49298 8.86108 3.04003 8.01008 2.85817C7.58382 2.76708 7.24595 2.74433 6.99183 2.75112C6.865 2.75451 6.76006 2.76523 6.67645 2.77809C6.63469 2.78452 6.59841 2.79145 6.56752 2.79822C6.55209 2.80161 6.53802 2.80495 6.52531 2.80816C6.51896 2.80976 6.51295 2.81133 6.50728 2.81286C6.50444 2.81362 6.50169 2.81437 6.49903 2.81511C6.49769 2.81548 6.49638 2.81585 6.49509 2.81621C6.49445 2.8164 6.4935 2.81666 6.49317 2.81676C6.49223 2.81703 6.49129 2.81729 6.76625 3.77875C7.04121 4.7402 7.04028 4.74047 7.03936 4.74073C7.03905 4.74082 7.03813 4.74108 7.03753 4.74125C7.03632 4.74159 7.03513 4.74192 7.03395 4.74225C7.03161 4.7429 7.02934 4.74352 7.02715 4.74411C7.02276 4.74529 7.01867 4.74635 7.01489 4.74731C7.00733 4.74922 7.001 4.75069 6.99591 4.75181C6.98572 4.75404 6.98057 4.75483 6.98059 4.75483C6.98061 4.75483 6.9859 4.75401 6.99658 4.75306C7.00727 4.7521 7.02344 4.75099 7.04524 4.7504C7.13178 4.74809 7.31134 4.75401 7.59211 4.81401C8.15517 4.93434 9.12946 5.27327 10.5688 6.20261L11.6537 4.52239ZM5.85317 3.37098C5.51685 4.12405 5.33316 4.93632 5.31272 5.76083L7.31211 5.8104C7.326 5.25015 7.45081 4.69822 7.67933 4.18652L5.85317 3.37098ZM5.31272 5.76083C5.29228 6.58533 5.4355 7.40571 5.73408 8.17453L7.59842 7.45047C7.39553 6.92807 7.29822 6.37064 7.31211 5.8104L5.31272 5.76083ZM5.95819 7.10634C5.33521 7.731 4.84158 8.47242 4.50556 9.28814L6.35481 10.0499C6.59064 9.4774 6.93708 8.95706 7.37431 8.51865L5.95819 7.10634ZM4.50556 9.28814C4.16954 10.1039 3.99774 10.9778 4 11.8601L6 11.8549C5.99841 11.2358 6.11898 10.6224 6.35481 10.0499L4.50556 9.28814ZM4 11.8575C4 14.9633 4.91613 17.0515 6.47748 18.3931C7.99203 19.6946 9.95882 20.1528 11.7562 20.3679L11.9938 18.3821C10.3024 18.1797 8.83172 17.7792 7.78095 16.8762C6.777 16.0135 6 14.5517 6 11.8575H4ZM11.1691 18.6667C10.17 19.6624 9.91265 20.8473 10.0027 22.0732L11.9973 21.9268C11.9373 21.1102 12.1025 20.5601 12.5809 20.0833L11.1691 18.6667ZM10 22V29H12V22H10ZM20 29V26H18V29H20ZM20 26V21.875H18V26H20Z" fill="#FEFEFE"/>
</svg>
