<?xml version="1.0" standalone="no"?>
<!DOCTYPE svg PUBLIC "-//W3C//DTD SVG 20010904//EN"
 "http://www.w3.org/TR/2001/REC-SVG-20010904/DTD/svg10.dtd">
<svg version="1.0" xmlns="http://www.w3.org/2000/svg"
 width="32.000000pt" height="32.000000pt" viewBox="0 0 32.000000 32.000000"
 preserveAspectRatio="xMidYMid meet">

<g transform="translate(0.000000,32.000000) scale(0.100000,-0.100000)"
fill="#fff" stroke="none">
<path d="M4 246 c-7 -18 20 -81 52 -123 49 -64 126 -84 138 -37 l7 27 28 -27
c30 -29 78 -35 88 -10 3 9 -6 27 -23 45 l-28 29 22 39 c31 54 29 71 -8 71 -25
0 -35 -7 -52 -37 -12 -20 -23 -32 -24 -27 -1 5 -5 21 -8 37 -6 24 -11 27 -47
27 l-40 0 7 -45 c3 -25 3 -45 0 -45 -4 0 -16 20 -27 45 -17 39 -24 45 -50 45
-16 0 -32 -6 -35 -14z m76 -54 c33 -63 55 -63 55 1 0 42 2 47 23 47 19 0 22
-5 22 -45 0 -25 4 -45 9 -45 12 0 61 63 61 78 0 7 9 12 20 12 25 0 25 -2 -2
-49 l-22 -39 27 -36 c25 -32 26 -36 9 -36 -10 0 -29 11 -42 25 -30 31 -58 33
-62 3 -8 -58 -90 -13 -133 73 -30 58 -30 59 -7 59 10 0 27 -19 42 -48z"/>
</g>
</svg>
